<?xml version="1.0" encoding="UTF-8"?>
<svg id="Layer_1" data-name="Layer 1" xmlns="http://www.w3.org/2000/svg" viewBox="0 0 188.26 32.04">
  <defs>
    <style>
      .cls-1 {
        fill: #b1d135;
      }
    </style>
  </defs>
  <path class="cls-1" d="M32.14,16.07l-5.53,1.15c-1.12.21-2.78.36-4.98.44,1.48,1.17,2.66,2.23,3.53,3.18l3.71,4.05c.22.24.19.62-.07.82l-6.15,4.62c-.27.2-.66.12-.82-.17l-2.64-4.81c-.42-.77-1.12-2.27-2.07-4.5-1.03,2.44-1.73,3.94-2.07,4.5l-2.68,4.83c-.16.29-.54.38-.81.18l-6.32-4.62c-.28-.2-.3-.6-.07-.84l4-4.04c1.24-1.25,2.46-2.31,3.65-3.18-1.22-.11-2.83-.34-4.82-.72l-5.53-.89c-.34-.06-.55-.4-.43-.73l2.48-7.2c.11-.3.45-.45.74-.32l4.98,2.26c.58.27,2.03,1.09,4.33,2.47-.5-2.22-.82-3.88-.95-4.97l-.71-5.37c-.05-.34.21-.63.56-.63h7.52c.34,0,.6.29.56.63l-.64,5.37c-.16,1.46-.49,3.12-.99,4.97,1-.5,1.67-.85,1.99-1.03,1.11-.61,1.96-1.04,2.55-1.31l4.96-2.35c.3-.15.66.01.76.33l2.38,7.2c.1.32-.09.65-.41.72"/>
  <g>
    <path class="cls-1" d="M39.04,16.4v-.07c0-6.85,5.17-12.47,12.57-12.47,4.51,0,7.3,1.52,9.5,3.72l-3.38,3.89c-1.89-1.69-3.72-2.72-6.16-2.72-4.06,0-6.99,3.38-6.99,7.51v.07c0,4.13,2.86,7.58,6.99,7.58,2.75,0,4.44-1.07,6.34-2.82l3.38,3.41c-2.48,2.65-5.2,4.3-9.88,4.3-7.09,0-12.36-5.48-12.36-12.4Z"/>
    <path class="cls-1" d="M65.22,3.24h5.23v25.14h-5.23V3.24Z"/>
    <path class="cls-1" d="M75.24,21.87v-11.95h5.23v10.3c0,2.48,1.14,3.75,3.17,3.75s3.27-1.27,3.27-3.75v-10.3h5.23v18.46h-5.23v-2.62c-1.21,1.55-2.79,2.96-5.41,2.96-3.99,0-6.27-2.58-6.27-6.85Z"/>
    <path class="cls-1" d="M102.07,25.97v2.41h-5.23V3.24h5.23v9.33c1.27-1.76,3-3,5.75-3,4.3,0,8.4,3.38,8.4,9.54v.07c0,6.16-4.03,9.54-8.4,9.54-2.79,0-4.51-1.27-5.75-2.75ZM110.98,19.19v-.07c0-3.06-2.07-5.1-4.51-5.1s-4.48,2.03-4.48,5.1v.07c0,3.06,2.03,5.1,4.48,5.1s4.51-2,4.51-5.1Z"/>
    <path d="M120.63,4.27h5.72l6.34,10.19,6.34-10.19h5.72v24.11h-5.27v-15.74l-6.79,10.3h-.14l-6.72-10.19v15.64h-5.2V4.27Z"/>
    <path d="M148.87,23.08v-.07c0-3.99,3.06-5.89,7.44-5.89,1.89,0,3.17.31,4.51.76v-.31c0-2.2-1.34-3.38-3.96-3.38-2.03,0-3.41.34-5.1,1l-1.31-4c2.03-.86,4.03-1.48,7.16-1.48,2.89,0,4.89.72,6.23,2.07,1.38,1.38,2,3.41,2,5.89v10.71h-5.06v-2c-1.27,1.41-3,2.34-5.58,2.34-3.48,0-6.34-1.96-6.34-5.65ZM160.89,21.87v-.93c-.93-.41-2.07-.69-3.34-.69-2.24,0-3.62.9-3.62,2.55v.07c0,1.41,1.17,2.24,2.86,2.24,2.48,0,4.1-1.31,4.1-3.24Z"/>
    <path d="M170.46,3.24h5.51v4.65h-5.51V3.24ZM170.6,9.92h5.23v18.46h-5.23V9.92Z"/>
    <path d="M181,3.24h5.23v25.14h-5.23V3.24Z"/>
  </g>
</svg>